<svg width="41" height="41" xmlns="http://www.w3.org/2000/svg" xmlns:xlink="http://www.w3.org/1999/xlink" xml:space="preserve" overflow="hidden"><g transform="translate(-446 -227)"><path d="M484.694 261.167 467.995 232.125C467.541 231.311 466.513 231.02 465.699 231.474 465.426 231.626 465.2 231.852 465.048 232.125L448.306 261.167C447.838 261.99 448.126 263.037 448.949 263.505 449.209 263.653 449.502 263.73 449.801 263.729L483.199 263.729C484.146 263.732 484.916 262.966 484.918 262.019 484.919 261.72 484.841 261.426 484.694 261.167ZM483.942 262.456C483.788 262.72 483.504 262.88 483.199 262.875L449.801 262.875C449.496 262.88 449.211 262.72 449.058 262.456 448.899 262.192 448.895 261.862 449.046 261.594L465.794 232.54C466.02 232.138 466.529 231.996 466.93 232.222 467.067 232.299 467.179 232.414 467.254 232.552L483.947 261.581C484.104 261.852 484.102 262.187 483.942 262.456Z"/><path d="M466.5 258.596C466.242 258.603 465.992 258.501 465.814 258.314 465.63 258.13 465.529 257.878 465.536 257.618 465.526 257.359 465.626 257.107 465.811 256.925 465.994 256.744 466.243 256.647 466.5 256.655 466.762 256.648 467.016 256.746 467.206 256.927 467.397 257.105 467.501 257.357 467.492 257.618 467.498 257.88 467.393 258.131 467.203 258.311 467.018 258.499 466.763 258.601 466.5 258.596Z"/><path d="M466.031 253.735 465.893 240.149 467.051 240.149 466.913 253.735 466.031 253.735Z"/></g></svg>