<svg version="1.1" id="OUTLINES" xmlns="http://www.w3.org/2000/svg" xmlns:xlink="http://www.w3.org/1999/xlink" x="0px" y="0px" viewBox="0 0 182 33" enable-background="new 0 0 182 33" xml:space="preserve">
        <g>
            <path fill="#ffffff" d="M112.16,15.716c3.662-0.834,6.024-3.475,6.024-7.506c0-4.912-3.197-8.202-9.823-8.202H97.658v32.435h11.074 c6.904,0,10.61-3.244,10.61-8.757C119.343,19.283,116.702,16.457,112.16,15.716z M99.696,1.676h8.619 c5.235,0,7.738,2.549,7.738,6.672s-2.503,6.625-7.738,6.625h-8.619V1.676z M108.64,30.776h-8.943V16.643h8.943 c5.791,0,8.572,2.64,8.572,7.043C117.212,28.134,114.431,30.776,108.64,30.776z"/>
            <path fill="#ffffff" d="M130.974,9.369c-4.262,0-7.321,2.362-8.433,5.791l1.76,0.557c1.158-3.197,3.568-4.773,6.673-4.773 c3.893,0,6.116,1.854,6.116,6.72v1.296l-2.966,0.14c-9.963,0.324-12.788,3.43-12.788,7.368c0,4.031,3.243,6.533,7.553,6.533 c3.799,0,6.719-1.807,8.201-5.051v4.495h1.947V18.125C139.037,12.056,136.071,9.369,130.974,9.369z M137.09,23.686 c0,4.309-3.057,7.739-7.97,7.739c-3.429,0-5.792-1.993-5.792-4.958c0-3.153,2.178-5.652,10.89-5.932l2.872-0.092V23.686z"/>
            <path fill="#ffffff" d="M153.172,9.369c-4.124,0-7.183,2.64-8.574,6.302V9.924h-1.991v22.52h1.991V21.138 c0-5.978,3.338-10.102,8.203-10.102c3.8,0,5.745,2.271,5.745,6.718v14.689h1.993V17.338 C160.539,12.519,157.943,9.369,153.172,9.369z"/>
            <polygon fill="#ffffff" points="172.496,18.774 180.604,9.924 178.196,9.924 166.101,23.269 166.101,0.008 164.108,0.008 164.108,32.443 166.101,32.443 166.101,25.678 171.198,20.164 179.632,32.443 181.901,32.443 	"/>
            <path fill="#ffffff" d="M63.237,8.75h1.983c0,0-0.016-7.087,6.459-7.087c0,0,1.635,0,1.971,0c0,0.335,0,29.123,0,29.123H70.55 c-1.981-0.194-3.63-1.471-5.222-2.984l-2.327-2.251c0.508-0.688,1.184-1.733,1.656-2.819c0.537-1.234,0.931-3.555,1.173-4.127 c0.079-0.186,0.171-0.367,0.279-0.538c0.306-0.484,0.822-0.895,1.346-1.123c0.399-0.173,0.892-0.288,1.331-0.288h0.296v-1.68 h-9.711v1.68h0.658c1.771,0.005,3.208,1.441,3.208,3.241c0,2.314-1.733,4.214-1.733,4.214l-8.877-8.622 c3.963-1.438,7.301-3.418,7.301-7.148c0-3.921-2.988-6.678-8.388-6.678c-5.476,0-9.126,3.028-9.126,7.923 c0,3.223,1.476,5.32,2.912,6.758c-4.505,1.747-7.185,4.039-7.185,8.233c0,5.903,5.321,8.272,11.225,8.272 c3.883,0,7.145-1.166,9.671-3.029c0.035-0.026,1.676,2.641,6.524,2.641c0.353,0,18.433-0.014,18.433-0.014v-1.662h-3.548 c0,0,0-28.826,0-29.123c0.335,0,1.972,0,1.972,0c6.456,0,6.459,7.087,6.459,7.087h1.983V0.008H63.237V8.75z M51.345,3.313 c2.137,0,3.458,1.719,3.458,4.165c0,2.719-1.206,5.057-3.806,6.457c-1.67-1.631-3.109-3.854-3.109-6.534 C47.887,4.993,49.21,3.313,51.345,3.313z M51.151,30.02c-3.844,0-6.719-2.843-6.719-6.648c0-2.679,0.621-4.311,2.408-5.475 L57.556,28.42C55.81,29.625,53.559,30.02,51.151,30.02z"/>
            <path fill="#ffffff" d="M34.854,1.662h3.842V0H28.344c0,0-8.564,21.39-8.84,22.082C19.225,21.39,10.616,0,10.616,0H0v1.662h3.842 L3.835,30.777H0.658v1.662h9.369v-1.662H5.87c0,0,0-24.291,0-25.404c0.49,1.233,10.44,26.326,10.44,26.326h1.68 c0,0,9.818-25.091,10.301-26.326c0,1.357-0.012,25.412-0.012,25.412h-3.265v1.654h13.118v-1.654h-3.278V1.662z"/>
        </g>
    </svg>